<svg id="Layer_1" data-name="Layer 1" xmlns="http://www.w3.org/2000/svg" viewBox="0 0 200 184.7"><defs><style>.cls-1{fill:#fcc40b;}.cls-2{fill:#38618c;}</style></defs><title>bench-the-barriers-logo</title><polygon class="cls-1" points="0 116.41 0 140.8 43.9 140.8 43.9 184.7 68.29 184.7 68.29 140.8 131.71 140.8 131.71 184.7 156.1 184.7 156.1 140.8 200 140.8 200 116.41 0 116.41"/><path class="cls-2" d="M97.37,0V104.49H46.73a53.46,53.46,0,0,1-13.68-1.76A36.48,36.48,0,0,1,21.2,97.32a26.76,26.76,0,0,1-8.27-9.44A28.78,28.78,0,0,1,9.86,74.19a28.94,28.94,0,0,1,4.75-16.75Q19.37,50.5,29,47.71a26.07,26.07,0,0,1-10.61-8.64q-3.6-5.26-3.59-13.17a28,28,0,0,1,2.41-12.29,20,20,0,0,1,6.81-8A29.48,29.48,0,0,1,34.58,1.31,65.77,65.77,0,0,1,48.19,0Zm-23,42.29V17.85H52.88a34.71,34.71,0,0,0-5.93.51,15.24,15.24,0,0,0-5.05,1.83,9.8,9.8,0,0,0-3.51,3.66,12.15,12.15,0,0,0-1.31,6q0,6.59,3.94,9.52a16.56,16.56,0,0,0,10.1,2.92Zm0,44.34V58h-25q-7.47,0-12,3.44T32.83,72.88a14.33,14.33,0,0,0,1.39,6.73A11.09,11.09,0,0,0,38,83.78,15.92,15.92,0,0,0,43.37,86a31.23,31.23,0,0,0,6.43.65Z"/><path class="cls-2" d="M156.59,0A65.7,65.7,0,0,1,170.2,1.31a29.4,29.4,0,0,1,10.53,4.33,20,20,0,0,1,6.81,8A28,28,0,0,1,190,25.9q0,7.91-3.58,13.17a26.21,26.21,0,0,1-10.61,8.64q9.66,2.77,14.41,9.73a29,29,0,0,1,4.76,16.75,28.78,28.78,0,0,1-3.08,13.69,26.56,26.56,0,0,1-8.27,9.44,36.48,36.48,0,0,1-11.85,5.41,53.46,53.46,0,0,1-13.68,1.76H107.42V0Zm-2.93,42.29a16.54,16.54,0,0,0,10.1-2.92q3.94-2.94,4-9.52a12.14,12.14,0,0,0-1.32-6,9.73,9.73,0,0,0-3.51-3.66,15.24,15.24,0,0,0-5-1.83,34.59,34.59,0,0,0-5.92-.51H130.39V42.29ZM155,86.63a31.16,31.16,0,0,0,6.43-.65,15.92,15.92,0,0,0,5.42-2.2,11.09,11.09,0,0,0,3.73-4.17A14.33,14.33,0,0,0,172,72.88q0-8.05-4.53-11.49t-12-3.44h-25V86.63Z"/></svg>