<?xml version="1.0" encoding="utf-8"?>
<!-- Generator: Adobe Illustrator 23.0.1, SVG Export Plug-In . SVG Version: 6.00 Build 0)  -->
<svg version="1.1" id="Layer_1" xmlns="http://www.w3.org/2000/svg" xmlns:xlink="http://www.w3.org/1999/xlink" x="0px" y="0px"
	 viewBox="0 0 256 256" style="enable-background:new 0 0 256 256;" xml:space="preserve">
<style type="text/css">
	.st0{fill:none;stroke:#38618C;stroke-width:24;stroke-linecap:round;stroke-linejoin:round;stroke-miterlimit:10;}
	.st1{fill:#38618C;}
</style>
<polyline class="st0" points="18.6,59.6 128,159.2 235.4,59.6 "/>
<g>
	<path class="st1" d="M179.1,24c29.2,0,53,23.8,53,53v102.1c0,29.2-23.8,53-53,53H77c-29.2,0-53-23.8-53-53V77c0-29.2,23.8-53,53-53
		H179.1 M179.1,0H77C34.5,0,0,34.5,0,77v102.1c0,42.5,34.5,77,77,77h102.1c42.5,0,77-34.5,77-77V77C256,34.5,221.6,0,179.1,0
		L179.1,0z"/>
</g>
</svg>
