<svg enable-background="new 0 0 256 256" viewBox="0 0 256 256" xmlns="http://www.w3.org/2000/svg"><path d="m18.6 59.6 109.4 99.6 107.4-99.6" style="fill:none;stroke:#38618c;stroke-width:24;stroke-linecap:round;stroke-linejoin:round;stroke-miterlimit:10"/><path d="m179.1 24c29.2 0 53 23.8 53 53v102.1c0 29.2-23.8 53-53 53h-102.1c-29.2 0-53-23.8-53-53v-102.1c0-29.2 23.8-53 53-53zm0-24h-102.1c-42.5 0-77 34.5-77 77v102.1c0 42.5 34.5 77 77 77h102.1c42.5 0 77-34.5 77-77v-102.1c-.1-42.5-34.5-77-77-77z" fill="#38618c"/></svg>