<?xml version="1.0" encoding="utf-8"?>
<!-- Generator: Adobe Illustrator 24.1.3, SVG Export Plug-In . SVG Version: 6.00 Build 0)  -->
<svg version="1.1" id="Layer_1" xmlns="http://www.w3.org/2000/svg" xmlns:xlink="http://www.w3.org/1999/xlink" x="0px" y="0px"
	 viewBox="0 0 303.9 256" style="enable-background:new 0 0 303.9 256;" xml:space="preserve">
<style type="text/css">
	.st0{fill:#38618C;}
</style>
<path class="st0" d="M201.1,24c15.1,0,28.8,6.4,38.3,16.5c12-2.3,23.3-6.7,33.4-12.7c-3.9,12.3-12.3,22.6-23.1,29.1
	c10.7-1.3,20.8-4.1,30.2-8.3c-7,10.5-15.9,19.8-26.3,27.2c0.1,2.3,0.2,4.5,0.2,6.8C253.8,152,201,232,104.4,232
	c-29.6,0-57.3-8.7-80.4-23.5c4.1,0.5,8.3,0.7,12.5,0.7c24.6,0,47.2-8.4,65.2-22.5c-23-0.4-42.4-15.6-49.1-36.5
	c3.2,0.6,6.5,0.9,9.9,0.9c4.8,0,9.4-0.6,13.8-1.8c-24-4.8-42.1-26.1-42.1-51.5v-0.7c7.1,4,15.2,6.3,23.8,6.6
	C43.9,94.3,34.6,78.2,34.6,60c0-9.6,2.6-18.6,7.1-26.4C67.6,65.4,106.3,86.3,150,88.5c-0.9-3.9-1.4-7.9-1.4-12
	C148.6,47.5,172.1,24,201.1,24 M279.9,48.6L279.9,48.6 M201.1,0c-36.8,0-67.6,26.1-74.9,60.7c-25.7-6.6-48.9-21.4-65.9-42.3
	c-4.6-5.6-11.4-8.8-18.6-8.8c-0.6,0-1.3,0-1.9,0.1c-7.9,0.6-14.9,5.1-18.9,11.9c-6.7,11.7-10.3,25-10.3,38.4
	c0,8.1,1.3,16.1,3.7,23.6c-2.6,3.9-4.1,8.6-4.1,13.5v0.7c0,18.8,6.9,36.4,18.5,49.9c-0.3,3.3,0,6.6,1,9.8
	c3.3,10.3,8.6,19.5,15.4,27.2c-2.9,0.3-5.8,0.4-8.7,0.4c-3.5,0-6.7-0.2-9.6-0.5c-1-0.1-2-0.2-2.9-0.2c-10,0-19.1,6.3-22.6,15.9
	c-3.8,10.5,0.2,22.3,9.6,28.3c27.9,17.9,60.1,27.3,93.3,27.3c26.6,0,51.5-5.3,74.2-15.8c20.9-9.7,39.3-23.5,54.7-41
	c27.2-30.9,43.3-71.4,44.4-111.9c8.3-7.3,15.6-15.6,21.9-25c2.7-3.9,4.3-8.6,4.3-13.7c0-6.8-2.8-12.9-7.4-17.3
	c1.2-8.4-2-16.9-8.8-22.3c-4.3-3.4-9.6-5.2-14.9-5.2c-4.2,0-8.5,1.1-12.3,3.4c-4.8,2.9-9.9,5.2-15.1,7C232.6,5,217.1,0,201.1,0
	L201.1,0z"/>
</svg>
