<svg enable-background="new 0 0 256 256" viewBox="0 0 256 256" xmlns="http://www.w3.org/2000/svg"><path d="m256 48.6c-9.4 4.2-19.5 7-30.2 8.3 10.8-6.5 19.2-16.8 23.1-29.1-10.1 6-21.4 10.4-33.4 12.7-9.5-10.1-23.2-16.5-38.3-16.5-29 0-52.5 23.5-52.5 52.5 0 4.1.5 8.1 1.4 12-43.7-2.2-82.4-23.1-108.3-54.9-4.5 7.8-7.1 16.8-7.1 26.4 0 18.2 9.3 34.3 23.4 43.7-8.6-.3-16.7-2.6-23.8-6.6v.7c0 25.4 18.1 46.7 42.1 51.5-4.4 1.2-9 1.8-13.8 1.8-3.4 0-6.7-.3-9.9-.9 6.7 20.9 26.1 36.1 49.1 36.5-18 14.1-40.6 22.5-65.2 22.5-4.2 0-8.4-.2-12.5-.7 23.1 14.8 50.8 23.5 80.4 23.5 96.6 0 149.4-80 149.4-149.4 0-2.3-.1-4.5-.2-6.8 10.4-7.4 19.3-16.7 26.3-27.2z" fill="#38618c"/></svg>